<svg xmlns="http://www.w3.org/2000/svg" xmlns:xlink="http://www.w3.org/1999/xlink" xml:space="preserve" version="1.1" style="shape-rendering:geometricPrecision;text-rendering:geometricPrecision;image-rendering:optimizeQuality;" viewBox="0 0 4116 5763.75" x="0px" y="0px" fill-rule="evenodd" clip-rule="evenodd"><defs><style type="text/css">
   
    .fil0 {fill:black}
   
  </style></defs><g><path class="fil0" d="M757 3376c-22,23 -59,23 -82,0 -22,-22 -22,-59 0,-82l246 -246c23,-22 59,-22 82,0 23,23 23,60 0,82l-246 246zm1906 -185l-110 289c-14,35 -41,62 -79,62l-909 0c-39,0 -72,-26 -79,-64l-56 -287c-23,-119 -78,-213 -167,-294 -230,-212 -374,-515 -374,-852 0,-640 518,-1158 1157,-1158 640,0 1158,518 1158,1158 0,337 -144,640 -374,852 -89,81 -125,181 -167,294zm-617 -1927c418,0 757,338 757,756 0,418 -339,757 -757,757 -417,0 -756,-339 -756,-757 0,-418 339,-756 756,-756zm-264 628l43 0 0 -146c0,-86 20,-152 60,-197 40,-46 101,-69 183,-69 81,0 142,23 182,69 40,45 61,111 61,197l0 76 -157 0 0 -87c0,-38 -7,-65 -22,-81 -14,-15 -34,-23 -60,-23 -26,0 -46,8 -60,23 -14,16 -21,43 -21,81l0 157 232 0 0 83 -232 0 0 83 232 0 0 83 -232 0 0 164c0,39 7,65 21,80 14,15 34,23 60,23 26,0 46,-8 60,-23 15,-15 22,-41 22,-80l0 -95 157 0 0 85c0,85 -21,151 -61,197 -40,46 -101,68 -182,68 -82,0 -143,-22 -183,-68 -40,-46 -60,-112 -60,-197l0 -154 -43 0 0 -83 43 0 0 -83 -43 0 0 -83zm264 -754c488,0 883,395 883,882 0,488 -395,883 -883,883 -487,0 -882,-395 -882,-883 0,-487 395,-882 882,-882zm-403 2879l775 0c64,0 116,52 116,116l0 0c0,63 -52,116 -116,116l-775 0c-64,0 -116,-53 -116,-116l0 0c0,-64 52,-116 116,-116zm0 -337l775 0c64,0 116,52 116,116l0 0c0,63 -52,115 -116,115l-775 0c-64,0 -116,-52 -116,-115l0 0c0,-64 52,-116 116,-116zm46 656c34,164 183,275 357,275 175,0 317,-111 351,-275l-708 0zm1687 -977c23,23 23,60 0,82 -23,23 -59,23 -82,0l-246 -246c-22,-22 -22,-59 0,-82 23,-22 60,-22 82,0l246 246zm-3318 -1289c-32,0 -58,-26 -58,-58 0,-32 26,-58 58,-58l645 0c32,0 58,26 58,58 0,32 -26,58 -58,58l-645 0zm682 -1313c-22,-22 -22,-59 0,-82 23,-22 60,-22 82,0l246 246c23,23 23,59 0,82 -22,23 -59,23 -82,0l-246 -246zm1306 -699c0,-32 26,-58 58,-58 32,0 58,26 58,58l0 645c0,32 -26,58 -58,58 -32,0 -58,-26 -58,-58l0 -645zm1313 682c23,-22 60,-22 82,0 23,23 23,60 0,82l-246 246c-22,23 -59,23 -82,0 -22,-22 -22,-59 0,-82l246 -246zm699 1306c32,0 58,26 58,58 0,32 -26,58 -58,58l-644 0c-32,0 -58,-26 -58,-58 0,-32 26,-58 58,-58l644 0z"/></g><text x="0" y="4626" fill="#000000" font-size="5px" font-weight="bold" font-family="'Helvetica Neue', Helvetica, Arial-Unicode, Arial, Sans-serif">Created by popcornarts</text><text x="0" y="4631" fill="#000000" font-size="5px" font-weight="bold" font-family="'Helvetica Neue', Helvetica, Arial-Unicode, Arial, Sans-serif">from the Noun Project</text></svg>